<svg xmlns="http://www.w3.org/2000/svg" viewBox="0 0 1600 1000" role="img" aria-labelledby="t d">
<title id="t">Scatter plot of tweet stance clusters from topic modeling on gun control discourse</title>
<desc id="d">A research figure showing three colored clusters of tweets by stance, a legend with counts, and a bar chart of top discussion topics</desc>
<rect width="1600" height="1000" fill="#fbfbf9"/>
<text x="60" y="56" font-family="Georgia, 'Times New Roman', serif" font-size="30" fill="#1a1a1a" font-weight="600">Stance Clustering: Gun Control Discourse on Twitter</text>
<text x="60" y="84" font-family="Georgia, serif" font-size="18" fill="#666">BERTweet embeddings, reduced via UMAP · n = 1,842 tweets</text>
<rect x="130" y="130" width="810" height="670" fill="#ffffff" stroke="#333333" stroke-width="1.5"/>
<line x1="231.2" y1="130" x2="231.2" y2="800" stroke="#e4e4e0" stroke-width="1"/>
<line x1="332.5" y1="130" x2="332.5" y2="800" stroke="#e4e4e0" stroke-width="1"/>
<line x1="433.8" y1="130" x2="433.8" y2="800" stroke="#e4e4e0" stroke-width="1"/>
<line x1="535.0" y1="130" x2="535.0" y2="800" stroke="#e4e4e0" stroke-width="1"/>
<line x1="636.2" y1="130" x2="636.2" y2="800" stroke="#e4e4e0" stroke-width="1"/>
<line x1="737.5" y1="130" x2="737.5" y2="800" stroke="#e4e4e0" stroke-width="1"/>
<line x1="838.8" y1="130" x2="838.8" y2="800" stroke="#e4e4e0" stroke-width="1"/>
<line x1="130" y1="241.7" x2="940" y2="241.7" stroke="#e4e4e0" stroke-width="1"/>
<line x1="130" y1="353.3" x2="940" y2="353.3" stroke="#e4e4e0" stroke-width="1"/>
<line x1="130" y1="465.0" x2="940" y2="465.0" stroke="#e4e4e0" stroke-width="1"/>
<line x1="130" y1="576.7" x2="940" y2="576.7" stroke="#e4e4e0" stroke-width="1"/>
<line x1="130" y1="688.3" x2="940" y2="688.3" stroke="#e4e4e0" stroke-width="1"/>
<line x1="130.0" y1="800" x2="130.0" y2="806" stroke="#333" stroke-width="1"/>
<line x1="231.2" y1="800" x2="231.2" y2="806" stroke="#333" stroke-width="1"/>
<line x1="332.5" y1="800" x2="332.5" y2="806" stroke="#333" stroke-width="1"/>
<line x1="433.8" y1="800" x2="433.8" y2="806" stroke="#333" stroke-width="1"/>
<line x1="535.0" y1="800" x2="535.0" y2="806" stroke="#333" stroke-width="1"/>
<line x1="636.2" y1="800" x2="636.2" y2="806" stroke="#333" stroke-width="1"/>
<line x1="737.5" y1="800" x2="737.5" y2="806" stroke="#333" stroke-width="1"/>
<line x1="838.8" y1="800" x2="838.8" y2="806" stroke="#333" stroke-width="1"/>
<line x1="940.0" y1="800" x2="940.0" y2="806" stroke="#333" stroke-width="1"/>
<line x1="124" y1="130.0" x2="130" y2="130.0" stroke="#333" stroke-width="1"/>
<line x1="124" y1="241.7" x2="130" y2="241.7" stroke="#333" stroke-width="1"/>
<line x1="124" y1="353.3" x2="130" y2="353.3" stroke="#333" stroke-width="1"/>
<line x1="124" y1="465.0" x2="130" y2="465.0" stroke="#333" stroke-width="1"/>
<line x1="124" y1="576.7" x2="130" y2="576.7" stroke="#333" stroke-width="1"/>
<line x1="124" y1="688.3" x2="130" y2="688.3" stroke="#333" stroke-width="1"/>
<line x1="124" y1="800.0" x2="130" y2="800.0" stroke="#333" stroke-width="1"/>
<text x="535.0" y="842" font-family="Georgia, serif" font-size="17" fill="#444" text-anchor="middle">UMAP dimension 1</text>
<text x="84" y="465.0" font-family="Georgia, serif" font-size="17" fill="#444" text-anchor="middle" transform="rotate(-90 84 465.0)">UMAP dimension 2</text>
<clipPath id="plotClip"><rect x="130" y="130" width="810" height="670"/></clipPath>
<g clip-path="url(#plotClip)">
<ellipse cx="310.0" cy="580.0" rx="150" ry="190" fill="#4C72B0" fill-opacity="0.08" stroke="#4C72B0" stroke-opacity="0.35" stroke-width="1.5" stroke-dasharray="4 4" transform="rotate(22.9 310.0 580.0)"/>
<ellipse cx="720.0" cy="360.0" rx="160" ry="180" fill="#C44E52" fill-opacity="0.08" stroke="#C44E52" stroke-opacity="0.35" stroke-width="1.5" stroke-dasharray="4 4" transform="rotate(-17.2 720.0 360.0)"/>
<ellipse cx="555.0" cy="475.0" rx="200" ry="220" fill="#55A868" fill-opacity="0.08" stroke="#55A868" stroke-opacity="0.35" stroke-width="1.5" stroke-dasharray="4 4" transform="rotate(5.7 555.0 475.0)"/>
<circle cx="306.1" cy="554.0" r="6.4" fill="#4C72B0" fill-opacity="0.65"/>
<circle cx="264.7" cy="659.9" r="7.0" fill="#4C72B0" fill-opacity="0.78"/>
<circle cx="374.6" cy="396.0" r="6.5" fill="#4C72B0" fill-opacity="0.62"/>
<circle cx="352.6" cy="560.3" r="5.1" fill="#4C72B0" fill-opacity="0.56"/>
<circle cx="285.1" cy="585.8" r="5.2" fill="#4C72B0" fill-opacity="0.69"/>
<circle cx="271.4" cy="727.9" r="7.0" fill="#4C72B0" fill-opacity="0.57"/>
<circle cx="361.9" cy="617.5" r="5.7" fill="#4C72B0" fill-opacity="0.74"/>
<circle cx="296.8" cy="431.2" r="5.1" fill="#4C72B0" fill-opacity="0.76"/>
<circle cx="265.2" cy="746.1" r="6.0" fill="#4C72B0" fill-opacity="0.62"/>
<circle cx="319.0" cy="568.8" r="6.5" fill="#4C72B0" fill-opacity="0.55"/>
<circle cx="430.1" cy="425.6" r="6.8" fill="#4C72B0" fill-opacity="0.78"/>
<circle cx="257.9" cy="627.2" r="4.8" fill="#4C72B0" fill-opacity="0.68"/>
<circle cx="398.6" cy="583.5" r="5.0" fill="#4C72B0" fill-opacity="0.84"/>
<circle cx="330.4" cy="623.7" r="6.1" fill="#4C72B0" fill-opacity="0.57"/>
<circle cx="434.8" cy="475.6" r="5.2" fill="#4C72B0" fill-opacity="0.80"/>
<circle cx="436.4" cy="419.7" r="5.9" fill="#4C72B0" fill-opacity="0.79"/>
<circle cx="138.0" cy="410.4" r="6.5" fill="#4C72B0" fill-opacity="0.85"/>
<circle cx="185.5" cy="651.0" r="6.3" fill="#4C72B0" fill-opacity="0.84"/>
<circle cx="429.8" cy="458.6" r="7.2" fill="#4C72B0" fill-opacity="0.73"/>
<circle cx="434.9" cy="491.3" r="6.7" fill="#4C72B0" fill-opacity="0.70"/>
<circle cx="317.3" cy="541.6" r="7.0" fill="#4C72B0" fill-opacity="0.71"/>
<circle cx="278.6" cy="682.3" r="7.2" fill="#4C72B0" fill-opacity="0.77"/>
<circle cx="348.1" cy="645.5" r="5.9" fill="#4C72B0" fill-opacity="0.63"/>
<circle cx="342.6" cy="661.3" r="5.2" fill="#4C72B0" fill-opacity="0.74"/>
<circle cx="291.5" cy="470.9" r="6.8" fill="#4C72B0" fill-opacity="0.71"/>
<circle cx="243.6" cy="622.4" r="6.4" fill="#4C72B0" fill-opacity="0.63"/>
<circle cx="169.9" cy="792.0" r="4.7" fill="#4C72B0" fill-opacity="0.64"/>
<circle cx="293.9" cy="418.1" r="5.3" fill="#4C72B0" fill-opacity="0.65"/>
<circle cx="305.3" cy="778.7" r="6.1" fill="#4C72B0" fill-opacity="0.59"/>
<circle cx="311.9" cy="698.8" r="5.2" fill="#4C72B0" fill-opacity="0.76"/>
<circle cx="439.6" cy="621.5" r="6.6" fill="#4C72B0" fill-opacity="0.57"/>
<circle cx="212.4" cy="463.6" r="5.7" fill="#4C72B0" fill-opacity="0.71"/>
<circle cx="466.5" cy="442.4" r="5.7" fill="#4C72B0" fill-opacity="0.61"/>
<circle cx="300.1" cy="611.6" r="5.8" fill="#4C72B0" fill-opacity="0.82"/>
<circle cx="245.8" cy="655.0" r="6.3" fill="#4C72B0" fill-opacity="0.76"/>
<circle cx="243.3" cy="792.0" r="7.1" fill="#4C72B0" fill-opacity="0.78"/>
<circle cx="395.1" cy="530.0" r="5.6" fill="#4C72B0" fill-opacity="0.55"/>
<circle cx="302.9" cy="459.6" r="5.6" fill="#4C72B0" fill-opacity="0.78"/>
<circle cx="422.0" cy="547.4" r="7.1" fill="#4C72B0" fill-opacity="0.84"/>
<circle cx="265.9" cy="667.1" r="5.8" fill="#4C72B0" fill-opacity="0.77"/>
<circle cx="261.6" cy="518.1" r="6.1" fill="#4C72B0" fill-opacity="0.73"/>
<circle cx="203.7" cy="382.3" r="5.2" fill="#4C72B0" fill-opacity="0.62"/>
<circle cx="239.3" cy="608.8" r="5.8" fill="#4C72B0" fill-opacity="0.56"/>
<circle cx="415.4" cy="621.9" r="5.5" fill="#4C72B0" fill-opacity="0.75"/>
<circle cx="324.4" cy="609.8" r="5.7" fill="#4C72B0" fill-opacity="0.60"/>
<circle cx="359.7" cy="727.1" r="5.9" fill="#4C72B0" fill-opacity="0.59"/>
<circle cx="385.1" cy="469.1" r="6.4" fill="#4C72B0" fill-opacity="0.56"/>
<circle cx="369.8" cy="659.0" r="5.7" fill="#4C72B0" fill-opacity="0.72"/>
<circle cx="418.9" cy="621.8" r="4.6" fill="#4C72B0" fill-opacity="0.74"/>
<circle cx="499.1" cy="609.3" r="4.9" fill="#4C72B0" fill-opacity="0.69"/>
<circle cx="443.6" cy="652.7" r="4.7" fill="#4C72B0" fill-opacity="0.66"/>
<circle cx="322.0" cy="425.8" r="5.1" fill="#4C72B0" fill-opacity="0.65"/>
<circle cx="224.7" cy="744.8" r="6.8" fill="#4C72B0" fill-opacity="0.66"/>
<circle cx="346.6" cy="692.7" r="6.8" fill="#4C72B0" fill-opacity="0.80"/>
<circle cx="138.0" cy="577.2" r="5.3" fill="#4C72B0" fill-opacity="0.57"/>
<circle cx="386.5" cy="534.7" r="4.6" fill="#4C72B0" fill-opacity="0.71"/>
<circle cx="255.2" cy="556.5" r="7.5" fill="#4C72B0" fill-opacity="0.65"/>
<circle cx="514.3" cy="517.5" r="6.5" fill="#4C72B0" fill-opacity="0.78"/>
<circle cx="203.6" cy="727.2" r="6.5" fill="#4C72B0" fill-opacity="0.78"/>
<circle cx="289.4" cy="519.9" r="7.3" fill="#4C72B0" fill-opacity="0.61"/>
<circle cx="381.4" cy="435.0" r="4.6" fill="#4C72B0" fill-opacity="0.60"/>
<circle cx="390.5" cy="443.3" r="4.9" fill="#4C72B0" fill-opacity="0.75"/>
<circle cx="387.3" cy="613.1" r="6.2" fill="#4C72B0" fill-opacity="0.62"/>
<circle cx="495.6" cy="698.1" r="6.6" fill="#4C72B0" fill-opacity="0.78"/>
<circle cx="495.5" cy="474.5" r="5.0" fill="#4C72B0" fill-opacity="0.73"/>
<circle cx="283.0" cy="614.2" r="6.7" fill="#4C72B0" fill-opacity="0.58"/>
<circle cx="547.8" cy="443.3" r="7.0" fill="#4C72B0" fill-opacity="0.84"/>
<circle cx="366.7" cy="687.5" r="4.8" fill="#4C72B0" fill-opacity="0.56"/>
<circle cx="408.1" cy="722.0" r="5.4" fill="#4C72B0" fill-opacity="0.75"/>
<circle cx="341.0" cy="519.5" r="7.4" fill="#4C72B0" fill-opacity="0.67"/>
<circle cx="190.9" cy="557.2" r="6.6" fill="#4C72B0" fill-opacity="0.57"/>
<circle cx="191.0" cy="792.0" r="6.6" fill="#4C72B0" fill-opacity="0.74"/>
<circle cx="240.3" cy="595.8" r="4.8" fill="#4C72B0" fill-opacity="0.78"/>
<circle cx="192.7" cy="474.6" r="7.1" fill="#4C72B0" fill-opacity="0.73"/>
<circle cx="291.1" cy="688.3" r="4.9" fill="#4C72B0" fill-opacity="0.85"/>
<circle cx="438.9" cy="628.3" r="6.8" fill="#4C72B0" fill-opacity="0.65"/>
<circle cx="189.1" cy="593.5" r="5.8" fill="#4C72B0" fill-opacity="0.66"/>
<circle cx="330.3" cy="658.0" r="6.0" fill="#4C72B0" fill-opacity="0.65"/>
<circle cx="693.3" cy="510.6" r="7.0" fill="#C44E52" fill-opacity="0.80"/>
<circle cx="753.2" cy="437.6" r="4.8" fill="#C44E52" fill-opacity="0.84"/>
<circle cx="863.3" cy="392.2" r="6.4" fill="#C44E52" fill-opacity="0.80"/>
<circle cx="823.7" cy="598.3" r="6.6" fill="#C44E52" fill-opacity="0.68"/>
<circle cx="732.8" cy="318.9" r="6.7" fill="#C44E52" fill-opacity="0.84"/>
<circle cx="783.3" cy="526.7" r="5.3" fill="#C44E52" fill-opacity="0.79"/>
<circle cx="749.8" cy="416.0" r="6.1" fill="#C44E52" fill-opacity="0.70"/>
<circle cx="816.0" cy="265.9" r="5.8" fill="#C44E52" fill-opacity="0.77"/>
<circle cx="565.7" cy="445.3" r="5.3" fill="#C44E52" fill-opacity="0.81"/>
<circle cx="720.4" cy="283.5" r="7.0" fill="#C44E52" fill-opacity="0.58"/>
<circle cx="824.8" cy="403.9" r="7.1" fill="#C44E52" fill-opacity="0.62"/>
<circle cx="643.3" cy="448.8" r="5.9" fill="#C44E52" fill-opacity="0.73"/>
<circle cx="648.7" cy="195.8" r="5.6" fill="#C44E52" fill-opacity="0.56"/>
<circle cx="761.7" cy="341.4" r="7.1" fill="#C44E52" fill-opacity="0.60"/>
<circle cx="667.3" cy="442.0" r="5.1" fill="#C44E52" fill-opacity="0.79"/>
<circle cx="746.1" cy="279.4" r="5.5" fill="#C44E52" fill-opacity="0.81"/>
<circle cx="794.2" cy="464.5" r="6.6" fill="#C44E52" fill-opacity="0.63"/>
<circle cx="665.4" cy="424.7" r="4.5" fill="#C44E52" fill-opacity="0.83"/>
<circle cx="800.6" cy="619.7" r="4.8" fill="#C44E52" fill-opacity="0.77"/>
<circle cx="566.7" cy="494.7" r="6.0" fill="#C44E52" fill-opacity="0.78"/>
<circle cx="687.2" cy="357.6" r="6.6" fill="#C44E52" fill-opacity="0.74"/>
<circle cx="901.4" cy="302.8" r="6.0" fill="#C44E52" fill-opacity="0.79"/>
<circle cx="918.4" cy="243.1" r="4.8" fill="#C44E52" fill-opacity="0.62"/>
<circle cx="736.1" cy="293.4" r="6.6" fill="#C44E52" fill-opacity="0.64"/>
<circle cx="656.2" cy="387.6" r="6.2" fill="#C44E52" fill-opacity="0.69"/>
<circle cx="700.2" cy="391.6" r="6.1" fill="#C44E52" fill-opacity="0.68"/>
<circle cx="589.9" cy="651.8" r="6.7" fill="#C44E52" fill-opacity="0.65"/>
<circle cx="765.9" cy="564.7" r="6.6" fill="#C44E52" fill-opacity="0.63"/>
<circle cx="634.2" cy="423.3" r="5.3" fill="#C44E52" fill-opacity="0.59"/>
<circle cx="932.0" cy="166.8" r="5.1" fill="#C44E52" fill-opacity="0.59"/>
<circle cx="557.8" cy="341.5" r="6.1" fill="#C44E52" fill-opacity="0.78"/>
<circle cx="789.7" cy="425.5" r="5.1" fill="#C44E52" fill-opacity="0.61"/>
<circle cx="834.2" cy="292.4" r="6.0" fill="#C44E52" fill-opacity="0.77"/>
<circle cx="551.5" cy="357.5" r="7.4" fill="#C44E52" fill-opacity="0.71"/>
<circle cx="855.0" cy="376.7" r="5.3" fill="#C44E52" fill-opacity="0.58"/>
<circle cx="531.8" cy="413.8" r="5.1" fill="#C44E52" fill-opacity="0.62"/>
<circle cx="929.0" cy="562.5" r="5.0" fill="#C44E52" fill-opacity="0.55"/>
<circle cx="784.6" cy="378.9" r="6.1" fill="#C44E52" fill-opacity="0.63"/>
<circle cx="571.6" cy="300.0" r="7.4" fill="#C44E52" fill-opacity="0.72"/>
<circle cx="742.3" cy="416.3" r="6.6" fill="#C44E52" fill-opacity="0.59"/>
<circle cx="758.5" cy="288.0" r="7.1" fill="#C44E52" fill-opacity="0.70"/>
<circle cx="582.4" cy="304.9" r="7.1" fill="#C44E52" fill-opacity="0.72"/>
<circle cx="632.3" cy="468.0" r="5.9" fill="#C44E52" fill-opacity="0.68"/>
<circle cx="487.3" cy="390.1" r="5.1" fill="#C44E52" fill-opacity="0.57"/>
<circle cx="817.0" cy="521.2" r="7.3" fill="#C44E52" fill-opacity="0.69"/>
<circle cx="762.3" cy="472.7" r="7.0" fill="#C44E52" fill-opacity="0.67"/>
<circle cx="655.5" cy="286.5" r="4.7" fill="#C44E52" fill-opacity="0.74"/>
<circle cx="709.7" cy="555.0" r="4.7" fill="#C44E52" fill-opacity="0.59"/>
<circle cx="832.3" cy="386.5" r="6.2" fill="#C44E52" fill-opacity="0.64"/>
<circle cx="932.0" cy="257.9" r="7.5" fill="#C44E52" fill-opacity="0.59"/>
<circle cx="790.2" cy="376.9" r="6.8" fill="#C44E52" fill-opacity="0.73"/>
<circle cx="780.9" cy="632.1" r="6.9" fill="#C44E52" fill-opacity="0.62"/>
<circle cx="814.3" cy="155.0" r="6.1" fill="#C44E52" fill-opacity="0.69"/>
<circle cx="697.0" cy="420.9" r="5.8" fill="#C44E52" fill-opacity="0.81"/>
<circle cx="747.0" cy="182.3" r="7.5" fill="#C44E52" fill-opacity="0.64"/>
<circle cx="436.9" cy="208.1" r="6.4" fill="#C44E52" fill-opacity="0.73"/>
<circle cx="709.5" cy="350.3" r="6.7" fill="#C44E52" fill-opacity="0.83"/>
<circle cx="725.7" cy="261.6" r="5.1" fill="#C44E52" fill-opacity="0.61"/>
<circle cx="531.3" cy="164.3" r="6.5" fill="#C44E52" fill-opacity="0.60"/>
<circle cx="764.6" cy="392.7" r="5.0" fill="#C44E52" fill-opacity="0.57"/>
<circle cx="842.9" cy="421.3" r="4.5" fill="#C44E52" fill-opacity="0.69"/>
<circle cx="749.6" cy="520.3" r="6.3" fill="#C44E52" fill-opacity="0.64"/>
<circle cx="683.5" cy="288.3" r="5.2" fill="#C44E52" fill-opacity="0.76"/>
<circle cx="649.5" cy="308.3" r="6.6" fill="#C44E52" fill-opacity="0.69"/>
<circle cx="518.6" cy="441.9" r="6.6" fill="#C44E52" fill-opacity="0.83"/>
<circle cx="731.0" cy="311.1" r="6.9" fill="#C44E52" fill-opacity="0.74"/>
<circle cx="665.0" cy="423.7" r="6.5" fill="#C44E52" fill-opacity="0.83"/>
<circle cx="885.4" cy="313.6" r="5.8" fill="#C44E52" fill-opacity="0.71"/>
<circle cx="650.5" cy="307.2" r="6.4" fill="#C44E52" fill-opacity="0.82"/>
<circle cx="668.5" cy="217.1" r="7.0" fill="#C44E52" fill-opacity="0.57"/>
<circle cx="710.2" cy="370.7" r="5.0" fill="#C44E52" fill-opacity="0.64"/>
<circle cx="929.7" cy="413.6" r="6.7" fill="#C44E52" fill-opacity="0.72"/>
<circle cx="793.5" cy="247.7" r="5.4" fill="#C44E52" fill-opacity="0.59"/>
<circle cx="743.6" cy="209.6" r="6.6" fill="#C44E52" fill-opacity="0.76"/>
<circle cx="589.1" cy="541.5" r="7.3" fill="#55A868" fill-opacity="0.70"/>
<circle cx="425.9" cy="763.5" r="6.0" fill="#55A868" fill-opacity="0.57"/>
<circle cx="656.9" cy="198.4" r="4.6" fill="#55A868" fill-opacity="0.68"/>
<circle cx="632.6" cy="421.4" r="5.5" fill="#55A868" fill-opacity="0.63"/>
<circle cx="548.2" cy="544.5" r="4.8" fill="#55A868" fill-opacity="0.84"/>
<circle cx="636.1" cy="175.7" r="7.0" fill="#55A868" fill-opacity="0.72"/>
<circle cx="393.6" cy="575.3" r="7.4" fill="#55A868" fill-opacity="0.85"/>
<circle cx="694.8" cy="775.9" r="6.5" fill="#55A868" fill-opacity="0.63"/>
<circle cx="819.0" cy="191.6" r="4.6" fill="#55A868" fill-opacity="0.78"/>
<circle cx="683.2" cy="199.0" r="5.9" fill="#55A868" fill-opacity="0.75"/>
<circle cx="759.9" cy="533.8" r="7.2" fill="#55A868" fill-opacity="0.60"/>
<circle cx="377.3" cy="760.2" r="6.3" fill="#55A868" fill-opacity="0.74"/>
<circle cx="666.6" cy="201.1" r="6.0" fill="#55A868" fill-opacity="0.58"/>
<circle cx="603.9" cy="369.7" r="5.5" fill="#55A868" fill-opacity="0.65"/>
<circle cx="576.4" cy="407.0" r="6.5" fill="#55A868" fill-opacity="0.81"/>
<circle cx="754.0" cy="280.4" r="5.5" fill="#55A868" fill-opacity="0.76"/>
<circle cx="568.9" cy="749.9" r="5.4" fill="#55A868" fill-opacity="0.83"/>
<circle cx="444.9" cy="495.7" r="6.9" fill="#55A868" fill-opacity="0.72"/>
<circle cx="591.5" cy="374.7" r="5.9" fill="#55A868" fill-opacity="0.64"/>
<circle cx="637.4" cy="497.9" r="5.5" fill="#55A868" fill-opacity="0.84"/>
<circle cx="406.5" cy="725.7" r="5.7" fill="#55A868" fill-opacity="0.70"/>
<circle cx="659.9" cy="460.3" r="7.5" fill="#55A868" fill-opacity="0.75"/>
<circle cx="484.4" cy="349.7" r="6.1" fill="#55A868" fill-opacity="0.67"/>
<circle cx="716.4" cy="469.1" r="5.1" fill="#55A868" fill-opacity="0.66"/>
<circle cx="617.2" cy="453.4" r="6.8" fill="#55A868" fill-opacity="0.74"/>
<circle cx="636.5" cy="465.7" r="6.8" fill="#55A868" fill-opacity="0.61"/>
<circle cx="656.5" cy="457.6" r="6.1" fill="#55A868" fill-opacity="0.83"/>
<circle cx="652.2" cy="586.1" r="5.8" fill="#55A868" fill-opacity="0.76"/>
<circle cx="552.8" cy="345.2" r="4.9" fill="#55A868" fill-opacity="0.84"/>
<circle cx="444.5" cy="352.2" r="6.3" fill="#55A868" fill-opacity="0.62"/>
<circle cx="414.7" cy="591.4" r="5.0" fill="#55A868" fill-opacity="0.72"/>
<circle cx="525.5" cy="708.7" r="6.2" fill="#55A868" fill-opacity="0.58"/>
<circle cx="849.5" cy="508.2" r="7.5" fill="#55A868" fill-opacity="0.82"/>
<circle cx="360.5" cy="398.0" r="5.9" fill="#55A868" fill-opacity="0.59"/>
<circle cx="567.5" cy="251.9" r="7.0" fill="#55A868" fill-opacity="0.70"/>
<circle cx="518.3" cy="514.6" r="6.6" fill="#55A868" fill-opacity="0.70"/>
<circle cx="507.1" cy="354.3" r="5.3" fill="#55A868" fill-opacity="0.80"/>
<circle cx="430.1" cy="731.8" r="7.4" fill="#55A868" fill-opacity="0.62"/>
<circle cx="546.8" cy="349.1" r="6.2" fill="#55A868" fill-opacity="0.67"/>
<circle cx="492.5" cy="612.6" r="7.3" fill="#55A868" fill-opacity="0.70"/>
<circle cx="459.2" cy="538.0" r="7.1" fill="#55A868" fill-opacity="0.81"/>
<circle cx="637.9" cy="596.3" r="5.3" fill="#55A868" fill-opacity="0.79"/>
<circle cx="744.3" cy="411.0" r="5.7" fill="#55A868" fill-opacity="0.83"/>
<circle cx="713.4" cy="371.4" r="6.0" fill="#55A868" fill-opacity="0.80"/>
<circle cx="485.8" cy="648.4" r="5.3" fill="#55A868" fill-opacity="0.64"/>
<circle cx="661.3" cy="486.0" r="6.3" fill="#55A868" fill-opacity="0.85"/>
<circle cx="392.5" cy="543.4" r="6.0" fill="#55A868" fill-opacity="0.59"/>
<circle cx="487.3" cy="328.9" r="6.1" fill="#55A868" fill-opacity="0.65"/>
<circle cx="467.5" cy="503.4" r="6.2" fill="#55A868" fill-opacity="0.71"/>
<circle cx="275.2" cy="501.3" r="5.9" fill="#55A868" fill-opacity="0.65"/>
<circle cx="586.2" cy="390.0" r="5.1" fill="#55A868" fill-opacity="0.76"/>
<circle cx="680.0" cy="579.7" r="6.2" fill="#55A868" fill-opacity="0.62"/>
</g>
<rect x="1000" y="130" width="400" height="170" fill="#ffffff" stroke="#333" stroke-width="1.5"/>
<text x="1018" y="164" font-family="Georgia, serif" font-size="18" fill="#1a1a1a" font-weight="600">Stance</text>
<circle cx="1030" cy="196" r="7" fill="#4C72B0"/>
<text x="1050" y="202" font-family="Georgia, serif" font-size="17" fill="#333">Pro-regulation</text>
<text x="1382" y="202" font-family="Georgia, serif" font-size="16" fill="#777" text-anchor="end">712</text>
<circle cx="1030" cy="234" r="7" fill="#C44E52"/>
<text x="1050" y="240" font-family="Georgia, serif" font-size="17" fill="#333">Anti-regulation</text>
<text x="1382" y="240" font-family="Georgia, serif" font-size="16" fill="#777" text-anchor="end">648</text>
<circle cx="1030" cy="272" r="7" fill="#55A868"/>
<text x="1050" y="278" font-family="Georgia, serif" font-size="17" fill="#333">Neutral / mixed</text>
<text x="1382" y="278" font-family="Georgia, serif" font-size="16" fill="#777" text-anchor="end">482</text>
<rect x="1000" y="340" width="400" height="460" fill="#ffffff" stroke="#333" stroke-width="1.5"/>
<text x="1018" y="374" font-family="Georgia, serif" font-size="18" fill="#1a1a1a" font-weight="600">Top Topics (LDA)</text>
<text x="1018" y="420.4" font-family="Georgia, serif" font-size="14.5" fill="#333">2nd amendment rights</text>
<rect x="1190" y="400" width="190" height="30" fill="#f0f0ec"/>
<rect x="1190" y="400" width="174.8" height="30" fill="#C44E52" fill-opacity="0.75"/>
<text x="1018" y="462.4" font-family="Georgia, serif" font-size="14.5" fill="#333">background checks</text>
<rect x="1190" y="442" width="190" height="30" fill="#f0f0ec"/>
<rect x="1190" y="442" width="153.9" height="30" fill="#4C72B0" fill-opacity="0.75"/>
<text x="1018" y="504.4" font-family="Georgia, serif" font-size="14.5" fill="#333">school safety</text>
<rect x="1190" y="484" width="190" height="30" fill="#f0f0ec"/>
<rect x="1190" y="484" width="140.6" height="30" fill="#55A868" fill-opacity="0.75"/>
<text x="1018" y="546.4" font-family="Georgia, serif" font-size="14.5" fill="#333">mental health</text>
<rect x="1190" y="526" width="190" height="30" fill="#f0f0ec"/>
<rect x="1190" y="526" width="110.2" height="30" fill="#55A868" fill-opacity="0.75"/>
<text x="1018" y="588.4" font-family="Georgia, serif" font-size="14.5" fill="#333">mass shooting events</text>
<rect x="1190" y="568" width="190" height="30" fill="#f0f0ec"/>
<rect x="1190" y="568" width="125.4" height="30" fill="#8172B2" fill-opacity="0.75"/>
<text x="1018" y="630.4" font-family="Georgia, serif" font-size="14.5" fill="#333">state legislation</text>
<rect x="1190" y="610" width="190" height="30" fill="#f0f0ec"/>
<rect x="1190" y="610" width="85.5" height="30" fill="#937860" fill-opacity="0.75"/>
<text x="60" y="970" font-family="Georgia, serif" font-size="15" fill="#888">Fig. 1. Ongoing analysis, manuscript in preparation.</text>
</svg>